<?xml version="1.0" standalone="no"?>
<!DOCTYPE svg PUBLIC "-//W3C//DTD SVG 20010904//EN"
 "http://www.w3.org/TR/2001/REC-SVG-20010904/DTD/svg10.dtd">
<svg version="1.0" xmlns="http://www.w3.org/2000/svg"
 width="155.000000pt" height="159.000000pt" viewBox="0 0 155.000000 159.000000"
 preserveAspectRatio="xMidYMid meet">
<metadata>
Created by potrace 1.16, written by Peter Selinger 2001-2019
</metadata>
<g transform="translate(0.000000,159.000000) scale(0.100000,-0.100000)"
fill="#000000" stroke="none">
<path d="M809 1540 c-210 -121 -430 -199 -557 -200 l-43 0 3 -367 3 -368 27
-80 c40 -116 92 -199 183 -290 90 -89 150 -128 281 -182 112 -46 154 -47 259
-5 126 50 203 100 296 192 74 73 93 99 138 190 74 153 82 209 79 595 l-3 310
-80 8 c-128 12 -334 90 -511 193 l-40 24 -35 -20z m-15 -85 c-14 -14 -27 -25
-30 -25 -3 0 -18 -12 -34 -27 -26 -26 -68 -133 -52 -133 4 0 8 -11 8 -24 2
-31 67 -102 102 -111 15 -4 35 -14 45 -22 15 -15 19 -15 35 0 9 8 28 18 42 22
34 9 52 23 83 70 42 63 34 136 -22 198 -13 15 -30 27 -35 27 -6 0 -19 12 -29
26 l-19 25 42 -4 c69 -7 125 -74 136 -162 6 -53 -12 -129 -28 -119 -7 5 -8 2
-3 -6 5 -8 1 -18 -10 -27 -11 -7 -15 -13 -10 -13 20 0 -73 -60 -102 -66 -18
-3 -30 -10 -27 -15 10 -16 -9 -9 -22 9 -13 16 -15 16 -28 0 -7 -10 -19 -18
-27 -18 -12 0 -12 2 0 9 11 7 5 11 -23 16 -38 8 -136 89 -122 102 3 3 -1 11
-9 17 -20 15 -27 88 -13 143 16 67 81 129 136 131 l41 2 -25 -25z m-322 -502
c23 -20 23 -61 1 -85 -15 -17 -15 -20 6 -48 l22 -30 -29 0 c-19 0 -35 8 -45
23 l-16 22 0 -22 c-1 -18 -7 -23 -26 -23 -25 0 -25 1 -25 90 l0 90 47 0 c29 0
53 -6 65 -17z m148 -3 c0 -16 -7 -20 -36 -20 -45 0 -42 -24 4 -28 24 -2 32 -8
32 -23 0 -15 -7 -19 -33 -19 -23 0 -34 -5 -34 -15 0 -10 11 -15 34 -15 26 0
33 -4 33 -20 0 -18 -7 -20 -55 -20 l-55 0 0 90 0 90 55 0 c48 0 55 -2 55 -20z
m154 -11 c28 -33 33 -67 14 -102 -18 -35 -40 -46 -90 -47 l-48 0 0 90 0 90 49
0 c43 0 53 -4 75 -31z m226 12 c0 -15 -8 -21 -32 -23 -41 -4 -42 -21 -3 -28
42 -7 47 -40 7 -40 -43 0 -51 -28 -9 -32 21 -2 33 -9 35 -20 3 -15 -5 -18 -52
-18 l-56 0 0 90 0 90 55 0 c48 0 55 -3 55 -19z m344 3 c36 -36 6 -104 -46
-104 -13 0 -18 -8 -18 -30 0 -25 -4 -30 -25 -30 -25 0 -25 1 -25 90 l0 90 49
0 c32 0 55 -6 65 -16z"/>
</g>
</svg>
